<svg xmlns="http://www.w3.org/2000/svg" width="24" height="24" viewBox="0 0 24 24">
    <defs>
        <clipPath id="vkeue3lama">
            <path data-name="사각형 37" style="fill:#fff" d="M0 0h24v24H0z"/>
        </clipPath>
    </defs>
    <g data-name="그룹 6" style="clip-path:url(#vkeue3lama)">
        <path data-name="패스 6" d="M12 2a10 10 0 1 0 10 10A10 10 0 0 0 12 2zm7.46 7.12-2.78 1.15a4.982 4.982 0 0 0-2.95-2.94l1.15-2.78a7.963 7.963 0 0 1 4.58 4.57zM12 15a3 3 0 1 1 3-3 3 3 0 0 1-3 3zM9.13 4.54l1.17 2.78a5 5 0 0 0-2.98 2.97L4.54 9.13a7.984 7.984 0 0 1 4.59-4.59zM4.54 14.87l2.78-1.15a4.968 4.968 0 0 0 2.97 2.96l-1.17 2.78a8 8 0 0 1-4.58-4.59zm10.34 4.59-1.15-2.78a4.978 4.978 0 0 0 2.95-2.97l2.78 1.17a8.007 8.007 0 0 1-4.58 4.58z" style="fill:#323232"/>
    </g>
</svg>
